<?xml version='1.0' encoding='utf-8'?>
<svg xmlns="http://www.w3.org/2000/svg" xmlns:xlink="http://www.w3.org/1999/xlink" viewBox="0 0 791.89777 307.36703">
<defs>
<filter height="1.5" id="filter4629" width="1.5" x="-.25" y="-.25">
<feGaussianBlur result="result8" stdDeviation="4"/>
<feTurbulence baseFrequency="0.025 0.2" numOctaves="3" result="result7" seed="22" type="fractalNoise"/>
<feComposite in="SourceGraphic" in2="result8" operator="in" result="result6"/>
<feDisplacementMap in="result7" in2="result6" result="result4" scale="50" xChannelSelector="A" yChannelSelector="A"/>
<feFlood flood-color="#e6d38a" result="result9"/>
<feComposite in2="result4" operator="atop" result="result2"/>
<feComposite in="result2" in2="SourceGraphic" operator="atop" result="result9"/>
<feGaussianBlur in="result9" result="result0" stdDeviation="8"/>
<feSpecularLighting in="result0" result="result1" specularConstant=".7" specularExponent="15" surfaceScale="5">
<feDistantLight azimuth="235" elevation="50"/>
</feSpecularLighting>
<feComposite in="result1" in2="result9" operator="in" result="result2"/>
<feComposite in="result9" in2="result2" k1="0" k2=".5" k3=".5" k4="0" operator="arithmetic" result="result4"/>
<feConvolveMatrix kernelMatrix="2 0 0 0 2 0 0 0 -2" order="3 3" result="result10" targetX="2" targetY="2"/>
<feBlend in="result10" in2="result10" mode="multiply"/>
</filter>
<filter height="1.1727" id="filter4809" width="1.7587" x="-.3793" y="-.0864">
<feGaussianBlur stdDeviation="8.994"/>
</filter>
<filter height="1.1738" id="filter4817" width="1.739" x="-.3695" y="-.0869">
<feGaussianBlur stdDeviation="8.994"/>
</filter>
<filter height="1.0876" id="filter4867" width="1.4361" x="-.218" y="-.0438">
<feGaussianBlur stdDeviation="5.397"/>
</filter>
<filter height="1.3327" id="filter4891" width="1.094" x="-.047" y="-.1664">
<feGaussianBlur stdDeviation="12.831"/>
</filter>
<linearGradient id="linearGradient4823">
<stop offset="0"/>
<stop offset="1" stop-opacity="0"/>
</linearGradient>
<linearGradient id="linearGradient3808">
<stop offset="0" stop-color="#806600"/>
<stop offset="1" stop-color="#e3dedb"/>
</linearGradient>
<linearGradient gradientUnits="userSpaceOnUse" id="linearGradient5826" x1="5.6569" x2="646.2956" y1="274.5492" y2="130.2994">
<stop offset="0"/>
<stop offset="1" stop-color="#ccc"/>
</linearGradient>
<linearGradient gradientUnits="userSpaceOnUse" id="linearGradient6120" x1="183.5888" x2="205.5091" y1="290.4841" y2="273.5136">
<stop offset="0" stop-color="#917c6f"/>
<stop offset="1" stop-color="#917c6f" stop-opacity="0"/>
</linearGradient>
<linearGradient gradientUnits="userSpaceOnUse" id="linearGradient5828" x1="-78.2759" x2="237.0508" xlink:href="#linearGradient4823"/>
<linearGradient gradientUnits="userSpaceOnUse" id="linearGradient5830" x1="174.6951" x2="488.4859" xlink:href="#linearGradient4823"/>
<linearGradient gradientTransform="matrix(.99607,-.0886,.0886,.99607,17.4314,7.77634)" gradientUnits="userSpaceOnUse" id="linearGradient6102" x1="284.1149" x2="675.6045" xlink:href="#linearGradient3808"/>
<linearGradient gradientTransform="matrix(.99607,-.0886,.0886,.99607,100.85754,18.42938)" gradientUnits="userSpaceOnUse" id="linearGradient6128" x1="70.7439" x2="90.0146" xlink:href="#linearGradient3808" y1="135.0418" y2="133.2669"/>
<linearGradient gradientTransform="matrix(.99607,-.0886,.0886,.99607,73.06381,15.04674)" gradientUnits="userSpaceOnUse" id="linearGradient6131" x1="70.7439" x2="90.0146" xlink:href="#linearGradient3808" y1="135.0418" y2="133.2669"/>
<linearGradient gradientTransform="matrix(.99607,-.0886,.0886,.99607,44.19241,10.99628)" gradientUnits="userSpaceOnUse" id="linearGradient6134" x1="70.7439" x2="90.0146" xlink:href="#linearGradient3808" y1="135.0418" y2="133.2669"/>
<linearGradient gradientTransform="matrix(.99607,-.0886,.0886,.99607,17.4314,7.77634)" gradientUnits="userSpaceOnUse" id="linearGradient6137" x1="70.7439" x2="90.0146" xlink:href="#linearGradient3808" y1="135.0418" y2="133.2669"/>
<radialGradient cx="185.262" cy="-92.4415" gradientTransform="matrix(1,0,0,4.93452,0,363.71284)" gradientUnits="userSpaceOnUse" id="radialGradient5963" r="30.016" xlink:href="#linearGradient4823"/>
</defs>
<g transform="translate(2.5694,-8.1067)">      </g>
<path d="m231.1139,282.1223c0,12.3173-9.4781,19.2598-21.7954,19.2598s-22.8097-6.9424-22.8097-19.2598 9.9852-22.3026 22.3026-22.3026 22.3026,9.9852 22.3026,22.3026z" fill="#241f1c" fill-rule="evenodd" stroke="#000" stroke-width=".6498"/>
<path d="m86.2268,66.0896c86.881,6.495 152.2992,25.8676 227.1917,39.5557 15.5022-1.5564 33.1854-6.7888 53.8162-6.1233 42.2244,10.5006 136.8574,35.1649 184.0009,55.5515 33.7173,14.5806 101.942-56.2646 148.6116-57.0351 21.9114.3802 32.5138,25.2928 29.2795,48.6107l.7357,98.9132c-.4727,3.1583-1.5691,4.8739-4.659,5.6277l-26.3712.006c-128.3328-14.0122-261.3945-25.7698-385.7957-49.0209-5.2205-.9757 9.4479,5.4293 2.4112,5.4967-21.7116.2082-33.7619-2.2311-65.0554-8.4489-3.3858-.6727-1.1492-2.4671-3.1809-2.8445-7.5186-1.397-27.1462-8.3232-35.8593-9.9071-75.478-13.7207-119.1034-38.911-136.7893-75.5013z" fill="url(#linearGradient5826)" fill-rule="evenodd" filter="url(#filter4891)" opacity=".403" stroke="#000" stroke-width=".628" transform="matrix(.98681,-.16188,.16188,.98681,.78886,80.20642)"/>
<path d="m206.1584-346.9201c0,11.2607-56.7574,20.3893-126.771,20.3893s-126.771-17.4601-126.771-28.7208 56.7574-4.5593 126.771-4.5593 126.771,1.6302 126.771,12.8909z" fill="url(#linearGradient5828)" fill-rule="evenodd" filter="url(#filter4809)" stroke="#000" stroke-linecap="round" stroke-width="2.0503" transform="matrix(.0242,-.46679,.46679,.0242,236.36807,242.87495)"/>
<path d="m457.739-335.5c0,11.2607-58.0023-1.2728-128.0159-1.2728s-124.2812,1.7025-124.2812-9.5582 56.7574-20.3893 126.771-20.3893 125.5261,19.9596 125.5261,31.2203z" fill="url(#linearGradient5830)" fill-rule="evenodd" filter="url(#filter4817)" stroke="#000" stroke-linecap="round" stroke-width="2.0503" transform="matrix(.0242,-.46679,.46679,.0242,236.36807,242.87495)"/>
<path d="m304.5112-364.2936a50.2046,50.2046 0 1,1 .9357,4.9902" fill-rule="evenodd" stroke="#000" stroke-linecap="round" stroke-width=".628" transform="matrix(-.02241,-.19099,.25564,-.02999,182.29651,195.04343)"/>
<path d="m457.739-335.5c0,11.2607-58.0023-1.2728-128.0159-1.2728s-124.2812,1.7025-124.2812-9.5582 56.7574-20.3893 126.771-20.3893 125.5261,19.9596 125.5261,31.2203z" fill-rule="evenodd" filter="url(#filter4629)" stroke="#000" stroke-linecap="round" stroke-width="2.0503" transform="matrix(.45206,.11883,.11883,-.45206,28.37289,-41.81437)"/>
<path d="m304.5112-364.2936a50.2046,50.2046 0 1,1 .9357,4.9902" fill-rule="evenodd" stroke="#000" stroke-linecap="round" stroke-width=".628" transform="matrix(.18598,.04888,.06543,-.24894,38.61352,29.65265)"/>
<path d="m86.1503,116.5735 15.3905-1.009-6.6086,51.1688c-8.9004-1.3083-6.9234-.5295-16.0934-4.8686z" fill="#b3b3b3" fill-rule="evenodd" stroke="#000" stroke-width=".628"/>
<path d="m229.4749,125.5157c-55.7463-7.8025-75.1969-8.4721-127.3392-9.8698l-6.5735,51.1734 123.4538,25.0113z" fill="#c8beb7" fill-rule="evenodd" stroke="#000" stroke-width=".628"/>
<path d="m85.5416,116.3549c0,0-45.5021,5.4069-43.343,18.3927 .3262,13.1422 35.6906,26.8604 35.6906,26.8604z" fill="#28170b" fill-rule="evenodd" opacity=".496" stroke="#000" stroke-width=".6281"/>
<path d="m155.8328-72.5822a29.6985,147.7853 0 1,1 .5535,14.6894" fill="url(#radialGradient5963)" fill-rule="evenodd" filter="url(#filter4867)" opacity=".671" stroke="#000" stroke-linecap="round" stroke-width=".628" transform="matrix(1.77583,-.15796,.0848,.95334,-243.28885,271.08589)"/>
<path d="m312.4916,204.1556 53.0406-4.7181 1.1418,29.7659-50.5175-.7771z" fill="#a99b9b" fill-rule="evenodd" stroke="#000" stroke-linecap="round" stroke-width=".628"/>
<path d="m203.7355,156.1812 10.7173,1.7196-4.4742,28.4-10.7398-1.9722z" fill="#c8beb7" fill-rule="evenodd" stroke="#000" stroke-width=".628"/>
<path d="m99.7102,131.4503 125.8408,15.2808-.9088,6.954-126.0709-15.0057z" fill="#e3dedb" fill-rule="evenodd" stroke="#000" stroke-width=".628"/>
<path d="m100.2773,134.9637c2.2258-5.6341 12.8784-3.6838 17.3181-2.5587l.006,8.6546c-1.1267.5137-14.8407-.5823-17.3243-6.0959z" fill="url(#linearGradient6137)" fill-rule="evenodd" stroke="#000" stroke-width=".6454"/>
<path d="m127.0383,138.1837c2.2258-5.6341 12.8784-3.6838 17.3181-2.5587l.006,8.6546c-1.1267.5137-14.8407-.5823-17.3243-6.0959z" fill="url(#linearGradient6134)" fill-rule="evenodd" stroke="#000" stroke-width=".6454"/>
<path d="m155.9097,142.2341c2.2258-5.6341 12.8784-3.6838 17.3181-2.5587l.006,8.6546c-1.1267.5137-14.8407-.5823-17.3243-6.0959z" fill="url(#linearGradient6131)" fill-rule="evenodd" stroke="#000" stroke-width=".6454"/>
<path d="m183.7035,145.6168c2.2258-5.6341 12.8784-3.6838 17.3181-2.5587l.006,8.6546c-1.1267.5137-14.8407-.5823-17.3243-6.0959z" fill="url(#linearGradient6128)" fill-rule="evenodd" stroke="#000" stroke-width=".6454"/>
<path d="m80.0457,162.2197 139.0298,29.7632c-.4756.9008.4969.4159.1618.5004-.2553.0644-14.1425,4.5572-23.418,14.9329 0,0-62.8658-5.0244-115.7736-45.1965z" fill="#aca793" fill-rule="evenodd" stroke="#000" stroke-width=".628"/>
<path d="m229.7928,125.7341 2.8231.258-10.7103,65.6118-3.3112,2.8402z" fill="#c8beb7" fill-rule="evenodd" stroke="#000" stroke-width=".628"/>
<path d="m196.6241,206.2627c2.673-5.3707 17.1573-13.942 24.9883-14.3782-12.7816,12.8025-25.1443,20.9882-5.7948,25.7172 3.8715,3.9313 5.8633,3.9014 8.6754,4.5077l-.2134,2.7131-13.7326-3.6972c-5.2729-2.1196-14.3719-3.7566-13.9229-14.8627z" fill="#484537" fill-rule="evenodd" stroke="#000" stroke-width=".4312"/>
<path d="m79.5405,162.2646c26.3659,18.8692 57.5787,36.0447 117.0598,44.6322-1.848,13.2099 23.0883,16.7735 27.4458,17.3553l-1.0562,2.4353c-66.7464-6.1798-126.5577-27.2408-143.4493-64.4228z" fill="#c8beb7" fill-rule="evenodd" stroke="#000" stroke-width=".3542"/>
<path d="m228.0355,214.0736-15.6556,43.8069c-1.9186-.3107-2.7003.2073-4.7251.3874-13.0938,1.1647-22.7426,12.7321-21.5779,25.8259 .8053,9.0528 11.4415,14.2297 24.5353,13.065s24.036-4.1881 22.8712-17.2819c-.6366-7.1565-4.3812-13.2999-9.7813-17.201l15.3511-46.4491z" fill="#ac9d93" fill-rule="evenodd" stroke="#000" stroke-width=".6935"/>
<path d="m201.8359,276.2637c-.7446,7.5188 2.5597,16.4698.0479,19.0996-.9791,1.0251-3.4102.1896-6.3578-1.0535-10.5717-4.4585-10.5923-11.9995-8.7984-18.7262 3.1921-11.9696 15.0157-18.3531 23.0713-17.5554s-6.9281,7.7858-7.9629,18.2355z" fill="url(#linearGradient6120)" fill-rule="evenodd"/>
<path d="m236.8775,180.0275c9.6144-6.1243 39.8264-13.0403 67.643,7.6633 2.8757,2.1403 15.0876,30.581 21.8752,32.3299 45.1039,11.6214 40.6872,5.9221 41.19,8.8613-101.6337.2854-168.9792-8.4944-161.313-20.5715 8.7481-10.2203 18.8308-19.7128 30.6048-28.2829z" fill="#b3b3b3" fill-rule="evenodd" stroke="#000" stroke-width=".628"/>
<path d="m238.9253,178.7653c19.8728,4.0712 40.1492,5.5809 60.6341,5.7667" fill="none" stroke="#000" stroke-linecap="round"/>
<path d="m211.5832,215.3981c13.8314-14.0967 35.0652-34.7998 35.0652-34.7998" fill="none" stroke="#000"/>
<path d="m290.1952,184.3014c4.184,13.8769 4.3637,15.0546 4.3637,15.0546l2.9028.4717 4.425,16.4316 20.3181.4425" fill="none" stroke="#000" stroke-width="1.0328"/>
<path d="m297.6792,199.8195 12.8585-1.1438" fill="none" stroke="#000"/>
<path d="m316.3325,207.1604c19.1352,3.7629 48.834-4.6707 50.8006,20.6817" fill="#a99b9b" stroke="#000"/>
<path d="m318.4997,211.2878c20.0162,2.2357 37.7841,6.1497 44.127,16.4891" fill="#a99b9b" stroke="#000" stroke-linecap="round"/>
<path d="m343.7929,159.7169-8.8388,54.4273" fill="#a99b9b" stroke="#000"/>
<path d="m317.2008,136.9756 5.6161-.5933 20.1194,18.2142 12.9283-18.9969c7.9432-12.5582 10.4605-9.9276 10.4605-9.9276l-22.5004,34.4021z" fill="#666" fill-rule="evenodd" stroke="#000" stroke-width=".628"/>
<path d="m344.7985,151.7973-1.8314,2.6829-20.053-18.0166c3.1659-.8241 17.7244,11.6454 21.8844,15.3337z" fill="#ccc" fill-rule="evenodd" stroke="#000" stroke-width=".628"/>
<path d="m371.5046,125.1474-3.8542.4056-22.469,34.5015 33.4061,5.2169 9.0736-27.7882-21.2242-3.3514zm-6.388,11.1981c7.2023,1.1352 12.7251,1.614 19.9272,2.7509l-6.6316,20.3238-24.7568-3.9156zm48.1003-5.7161-3.0747,9.8738-22.2603-3.0083-9.0369,27.8477 28.8193,4.0876 9.2465-38.1882zm-24.2303,9.0575c6.221.8674 14.9169,2.2077 21.137,3.0768l-5.3395,20.7422-22.0051-3.3133z" fill="#666" fill-rule="evenodd" stroke="#000" stroke-width=".628"/>
<path d="m713.4372,209.4129c-.5027,2.8273-25.0153,1.0835-50.2661-3.4057s-49.1391-12.9601-48.6365-15.7874 24.4839,5.0839 49.7347,9.5731 49.6705,6.7927 49.1679,9.62z" fill="#666" fill-rule="evenodd" opacity=".469" stroke="#000" stroke-width=".628"/>
<path d="m229.8822,141.859 460.3263,79.5652-.8848,4.2188-460.1337-78.4123z" fill="#666" fill-rule="evenodd" stroke="#000" stroke-width=".628"/>
<path d="m408.0135,169.3778 24.8537,4.1962" fill="none" stroke="#000" stroke-width="1.0084"/>
<path d="m701.3502,94.7916-4.037,18.4615" fill="none" stroke="#000"/>
<path d="m366.1447,228.9641c191.348,4.5321 214.5973,21.6097 249.4844-36.5625 28.7764,9.3562 50.5195,17.923 97.6866,17.3487 1.9263,19.8517 1.8096,23.1557 3.2653,36.3148-129.0305.5801-263.8677-4.557-392.878-14.3905l-1.0856-3.1717z" fill="url(#linearGradient6102)" fill-rule="evenodd" stroke="#000" stroke-linecap="round" stroke-width=".628"/>
<path d="m252.8255,223.9587 69.6272,4.6325c.3102,2.4402 3.8181,6.9032 6.5625,7.935-21.8104,3.7129-44.8931,1.0671-68.2067-2.6291z" fill="#808080" fill-rule="evenodd" stroke="#000" stroke-linecap="round" stroke-width=".628"/>
<path d="m236.9848,221.9514c5.3133.9157 10.5489,1.6784 15.5766,2.0308l3.0181,3.5029-19.9952-1.3272z" fill="#333" fill-rule="evenodd" stroke="#000" stroke-linecap="round" stroke-width=".628"/>
<path d="m235.9002,226.2185c6.3163.7482 14.9933.8914 19.4513,1.1981l3.8643,4.5368-23.8477-3.7354z" fill="#808080" fill-rule="evenodd" stroke="#000" stroke-linecap="round" stroke-width=".628"/>
<path d="m231.7113,131.2429 88.4313,8.3198 23.5374,20.4098-.491,1.4635-113.2829-19.5615z" fill="#ccc" fill-rule="evenodd" stroke="#000" stroke-linecap="round" stroke-width=".628"/>
<path d="m232.5738,125.975 84.6152,11.0194 2.7598,2.5941-88.1894-8.3055z" fill="#e6e6e6" fill-rule="evenodd" stroke="#000" stroke-linecap="round" stroke-width=".628"/>
<path d="m323.0886,135.9816c17.6363-9.0454 24.5167-10.0899 43.3049-10.463-4.8742-1.1419-11.1502,11.8178-21.5733,26.3218-5.8335-4.8941-15.851-14.4756-21.7315-15.8588z" fill="#afdde9" fill-rule="evenodd" stroke="#000" stroke-linecap="round" stroke-width=".628"/>
<path d="m371.4676,125.2003c13.2298.8496 33.1677,2.9595 41.8243,5.4348l-3.1869,9.9406-43.3441-6.438z" fill="#afdde9" fill-rule="evenodd" stroke="#000" stroke-linecap="round" stroke-width=".628"/>
<path d="m365.4618,136.5715-11.5007,18.8431 24.4483,3.9745 6.3431-20.3922z" fill="#afdde9" fill-rule="evenodd" stroke="#000" stroke-linecap="round" stroke-width=".628"/>
<path d="m389.0122,139.6219-6.1965,20.6302 22.0051,3.3133 5.2405-20.7961z" fill="#afdde9" fill-rule="evenodd" stroke="#000" stroke-linecap="round" stroke-width=".628"/>
<path d="m366.4959,125.6243-21.9474,34.0159 .9504.1037 21.9986-34.1459z" fill="#ccc" fill-rule="evenodd" stroke="#000"/>
<path d="m417.2697,131.3984c72.5569,7.6508 126.0129,29.4883 141.2215,30.796l3.4587,2.2022c-13.3296.3986-82.3794-23.1974-145.1132-31.5166z" fill="#ccc" fill-rule="evenodd"/>
<path d="m666.9583,257.6698c.1717,2.0771-1.6458,3.406-4.1335,3.6116s-4.7035-.79-4.8751-2.8671 1.7058-3.9276 4.1935-4.1332 4.6435,1.3116 4.8151,3.3887z" fill="#241f1c" fill-rule="evenodd" stroke="#000" stroke-width=".1203"/>
<path d="m652.2755,246.0073-1.4323-.1325c0,0 3.8342,13.0542 8.4716,13.7239s12.6441-.7941 12.6441-.7941 .3276-.8278-1.0217-.8795c-8.35-.3202-11.6453-1.4146-18.6617-11.9179z" fill="#666" fill-rule="evenodd" stroke="#000" stroke-linecap="round" stroke-width=".5779"/>
<path d="m659.8689,246.0696-7.4531-.1366c4.9623,6.7781 5.7412,11.5044 19.2589,11.9324 .7659.0242-.2386.9704.2843.7511 0,0 .3425-2.449-.9945-2.6377-7.5969-1.0722-9.4837-4.8543-11.0955-9.9092z" fill="#b3b3b3" fill-rule="evenodd" stroke="#000" stroke-linecap="round" stroke-width=".5779"/>
<path d="m662.0299,257.6118c.0733.4237-.2115.7189-.6352.7921s-.8259-.1032-.8991-.5269 .2109-.8265.6345-.8998 .8266.2109.8998.6345z" fill-rule="evenodd" stroke="#000" stroke-width=".0227"/>
<path d="m229.3665,147.7791 113.2202,18.8572-6.7472,41.863c0,0-19.36-.786-20.2964-1.5745-10.1105-16.5567-9.9298-17.5244-10.8179-18.4838-13.8024-13.1688-48.5615-21.5574-70.1133-6.6444-2.1831,1.5107-10.1103,8.1131-12.9345,10.7245z" fill="#ccc" fill-rule="evenodd" stroke="#000" stroke-linecap="round" stroke-width=".628"/>
<path d="m342.6748,166.6285 259.8927,44.1448c-32.1425,34.6697-48.4171,23.4383-235.3812,17.9322-.7894-16.7765-14.4332-19.9377-31.0904-20.3177z" fill="#ccc" fill-rule="evenodd" stroke="#000" stroke-linecap="round" stroke-width=".6143"/>
<path d="m416.9716,131.2455c161.9589,18.4614 128.4667,70.1342 243.8696-22.8329l48.4883,6.3053-19.0034,106.0924-346.9314-59.4114 .6003-1.5992 63.6475,9.3989z" fill="#ccc" fill-rule="evenodd" stroke="#000" stroke-width=".628"/>
<path d="m690.2635,220.3361-4.5693,25.6583" fill="none" stroke="#000"/>
<path d="m662.0077,107.8239c26.4822-19.8166 68.3536-21.3735 72.8141,24.8812l7.3705,105.7624c-.0916,2.8783-.2791,4.7724-2.994,5.4734l-22.296,1.9219-3.1071-35.326c-.8907-4.7738-9.1687-7.1387-19.333-10.5525l14.9407-85.1317z" fill="#ccc" fill-rule="evenodd" stroke="#000"/>
<path d="m416.7745,132.8856c71.8442,9.3257 126.7637,31.1533 145.1021,31.3921l3.669,1.7443c-13.3855.5874-87.5136-19.0171-149.3879-30.1951z" fill="#999" fill-rule="evenodd"/>
<path d="m580.8666,202.1189c35.13-27.9832 66.9897-59.6045 97.6868-92.5192" fill="none" stroke="#000"/>
<path d="m703.1035,148.5778-71.8954-18.2015" fill="none" stroke="#000"/>
<path d="m597.8798,153.5454 99.5481,27.1616" fill="none" stroke="#000"/>
<path d="m559.5426,162.7283c23.8255,11.22 49.2803,19.3415 74.0749,26.4784" fill="none" stroke="#000" stroke-linecap="round"/>
<path d="m713.4372,209.4129c-.5027,2.8273-24.3082-1.745-49.559-6.2341s-49.8462-10.1317-49.3436-12.959 26.0896-2.0694 51.3694,2.2534c31.4499,5.3778 48.0358,14.1124 47.5332,16.9397z" fill="#ccc" fill-rule="evenodd" stroke="#000" stroke-width=".628"/>
<path d="m713.9935,210.3073c-.6513,1.8539-27.0756-2.6208-52.4138-7.4172s-47.4014-10.5916-46.7502-12.4454 24.8328,2.5978 50.2088,7.285c31.5696,5.8313 49.6064,10.7238 48.9551,12.5776z" fill="#b3b3b3" fill-rule="evenodd" stroke="#000" stroke-width=".5179"/>
</svg>